<svg width="45" height="46" viewBox="0 0 45 46" fill="none" xmlns="http://www.w3.org/2000/svg">
<g opacity="0.8">
<g filter="url(#filter0_b_1_1132)">
<path d="M18.7561 0C10.9282 0 8.63879 0.00812277 8.19378 0.0452458C6.58735 0.179544 5.58774 0.433933 4.4987 0.979236C3.65945 1.39839 2.99754 1.88424 2.3443 2.56531C1.15462 3.80735 0.433605 5.3354 0.172591 7.15178C0.0456979 8.03356 0.00877638 8.21339 0.00127874 12.7175C-0.00159843 14.2189 0.00127874 16.1948 0.00127874 18.8451C0.00127874 26.7115 0.00992437 29.0117 0.0474267 29.4585C0.177211 31.0306 0.422351 32.0197 0.941488 33.1016C1.93361 35.1727 3.82843 36.7274 6.06072 37.3075C6.83366 37.5077 7.68734 37.6179 8.78328 37.6701C9.24763 37.6904 13.9804 37.7049 18.716 37.7049C23.4517 37.7049 28.1873 37.6991 28.6401 37.6759C29.9091 37.6159 30.646 37.5164 31.4608 37.3046C33.7075 36.7216 35.5677 35.1901 36.58 33.09C37.089 32.0342 37.3472 31.0074 37.464 29.5173C37.4893 29.1925 37.5 24.0128 37.5 18.8401C37.5 13.6666 37.4885 8.4965 37.4631 8.17163C37.3448 6.65751 37.0867 5.63939 36.5612 4.56325C36.1301 3.68233 35.6513 3.02446 34.9563 2.35183C33.7158 1.16025 32.1988 0.435088 30.3911 0.172875C29.5152 0.045531 29.3407 0.00782362 24.8588 0H18.7561Z" fill="white"/>
</g>
<path d="M18.7576 4.84131C14.971 4.84131 14.4958 4.85794 13.0085 4.92594C11.5242 4.99423 10.511 5.23034 9.62449 5.57677C8.70747 5.93456 7.92957 6.41319 7.1546 7.19212C6.37904 7.97077 5.90265 8.75232 5.54537 9.67339C5.1997 10.5644 4.96441 11.5826 4.89761 13.0734C4.83109 14.5676 4.81366 15.0454 4.81366 18.8499C4.81366 22.6544 4.83051 23.1304 4.89789 24.6246C4.96616 26.1159 5.20116 27.1339 5.54565 28.0246C5.90206 28.946 6.37844 29.7275 7.15372 30.5062C7.92843 31.2854 8.70631 31.7652 9.62275 32.123C10.5099 32.4694 11.5233 32.7055 13.0074 32.7738C14.4946 32.8418 14.9695 32.8584 18.7559 32.8584C22.5428 32.8584 23.0165 32.8418 24.5038 32.7738C25.9881 32.7055 27.0024 32.4694 27.8895 32.123C28.8063 31.7652 29.583 31.2854 30.3577 30.5062C31.1333 29.7275 31.6097 28.946 31.9669 28.0249C32.3097 27.1339 32.545 26.1157 32.6147 24.6249C32.6815 23.1307 32.6989 22.6544 32.6989 18.8499C32.6989 15.0454 32.6815 14.5679 32.6147 13.0737C32.545 11.5823 32.3097 10.5644 31.9669 9.67369C31.6097 8.75232 31.1333 7.97076 30.3577 7.19212C29.5821 6.41289 28.8066 5.93426 27.8887 5.57676C26.9998 5.23034 25.9861 4.99423 24.5017 4.92594C23.0145 4.85794 22.541 4.84131 18.7532 4.84131H18.7576ZM17.5068 7.36577C17.878 7.36519 18.2923 7.36577 18.7576 7.36577C22.4803 7.36577 22.9216 7.3792 24.3916 7.44632C25.7511 7.50878 26.4889 7.73699 26.9804 7.92873C27.631 8.18264 28.0949 8.48616 28.5826 8.97646C29.0706 9.46677 29.3727 9.93372 29.626 10.5874C29.8168 11.0807 30.0443 11.8219 30.1061 13.1878C30.173 14.6645 30.1875 15.1081 30.1875 18.8467C30.1875 22.5852 30.173 23.0288 30.1061 24.5055C30.044 25.8714 29.8168 26.6127 29.626 27.1059C29.3733 27.7596 29.0706 28.2251 28.5826 28.7151C28.0946 29.2054 27.6313 29.5089 26.9804 29.7628C26.4895 29.9555 25.7511 30.1831 24.3916 30.2455C22.9218 30.3127 22.4803 30.3273 18.7576 30.3273C15.0346 30.3273 14.5934 30.3127 13.1236 30.2455C11.7641 30.1825 11.0263 29.9543 10.5346 29.7625C9.88389 29.5086 9.41912 29.2051 8.93114 28.7148C8.44314 28.2245 8.14105 27.7587 7.88775 27.1047C7.69691 26.6115 7.46947 25.8702 7.4076 24.5044C7.34079 23.0276 7.32742 22.584 7.32742 18.8432C7.32742 15.1023 7.34079 14.661 7.4076 13.1843C7.46977 11.8184 7.69691 11.0772 7.88775 10.5834C8.14046 9.92963 8.44314 9.46268 8.93114 8.97238C9.41912 8.48207 9.88389 8.17856 10.5346 7.92407C11.026 7.73145 11.7641 7.50382 13.1236 7.44106C14.4098 7.38269 14.9082 7.36519 17.5068 7.36225L17.5068 7.36577ZM26.2001 9.69177C25.2764 9.69177 24.527 10.4439 24.527 11.3722C24.527 12.3003 25.2764 13.0533 26.2001 13.0533C27.1238 13.0533 27.8733 12.3003 27.8733 11.3722C27.8733 10.4441 27.1238 9.6912 26.2001 9.6912L26.2001 9.69177ZM18.7576 11.6559C14.8034 11.6559 11.5974 14.877 11.5974 18.8499C11.5974 22.8228 14.8034 26.0424 18.7576 26.0424C22.7118 26.0424 25.9166 22.8228 25.9166 18.8499C25.9166 14.877 22.7115 11.6559 18.7573 11.6559H18.7576ZM18.7576 14.1804C21.3242 14.1804 23.4052 16.2708 23.4052 18.8499C23.4052 21.4286 21.3242 23.5194 18.7576 23.5194C16.1907 23.5194 14.11 21.4286 14.11 18.8499C14.11 16.2708 16.1907 14.1804 18.7576 14.1804Z" fill="#2A4CC7"/>
</g>
<defs>
<filter id="filter0_b_1_1132" x="-20" y="-20" width="77.5" height="77.7048" filterUnits="userSpaceOnUse" color-interpolation-filters="sRGB">
<feFlood flood-opacity="0" result="BackgroundImageFix"/>
<feGaussianBlur in="BackgroundImageFix" stdDeviation="10"/>
<feComposite in2="SourceAlpha" operator="in" result="effect1_backgroundBlur_1_1132"/>
<feBlend mode="normal" in="SourceGraphic" in2="effect1_backgroundBlur_1_1132" result="shape"/>
</filter>
</defs>
</svg>
