<svg width="42" height="42" viewBox="0 0 42 42" fill="none" xmlns="http://www.w3.org/2000/svg">
<g filter="url(#filter0_b_1_1147)">
<path d="M25.9263 14.3143C28.4787 16.1436 31.6056 17.22 34.9827 17.22V10.7045C34.3436 10.7046 33.7061 10.6378 33.0808 10.505V15.6336C29.7039 15.6336 26.5775 14.5573 24.0243 12.7281V26.0243C24.0243 32.6758 18.6462 38.0675 12.0124 38.0675C9.53713 38.0675 7.23648 37.3172 5.32534 36.0305C7.5066 38.2666 10.5485 39.6537 13.9139 39.6537C20.5482 39.6537 25.9265 34.262 25.9265 27.6103V14.3143H25.9263ZM28.2725 7.74102C26.9681 6.31223 26.1116 4.46578 25.9263 2.42446V1.58643H24.1239C24.5776 4.18095 26.125 6.39755 28.2725 7.74102ZM9.52126 30.9264C8.79245 29.9683 8.39861 28.7963 8.40037 27.5913C8.40037 24.5491 10.8603 22.0825 13.8952 22.0825C14.4608 22.0824 15.023 22.1692 15.562 22.3407V15.6796C14.9321 15.593 14.2963 15.5563 13.6609 15.5698V20.7545C13.1215 20.583 12.559 20.4959 11.9932 20.4964C8.95837 20.4964 6.49859 22.9628 6.49859 26.0053C6.49859 28.1566 7.72814 30.0191 9.52126 30.9264Z" fill="#FF004F"/>
<path d="M24.0243 12.728C26.5775 14.5571 29.7039 15.6335 33.0808 15.6335V10.5048C31.1959 10.1023 29.5271 9.11469 28.2725 7.74102C26.1249 6.39742 24.5776 4.18081 24.1239 1.58643H19.3897V27.61C19.379 30.6438 16.9233 33.1004 13.8949 33.1004C12.1103 33.1004 10.5249 32.2475 9.52085 30.9264C7.72787 30.0191 6.49832 28.1564 6.49832 26.0054C6.49832 22.9632 8.9581 20.4966 11.993 20.4966C12.5744 20.4966 13.1349 20.5873 13.6606 20.7546V15.5699C7.14328 15.7049 1.90178 21.0439 1.90178 27.6102C1.90178 30.888 3.20703 33.8595 5.32548 36.0306C7.23662 37.3172 9.53726 38.0676 12.0125 38.0676C18.6465 38.0676 24.0245 32.6756 24.0245 26.0243V12.728H24.0243Z" fill="white" fill-opacity="0.8"/>
<path d="M33.0808 10.5045V9.11777C31.381 9.12036 29.7146 8.6431 28.2725 7.74056C29.5491 9.14186 31.2302 10.1081 33.0808 10.5045ZM24.1239 1.58611C24.0807 1.33816 24.0474 1.08857 24.0244 0.838031V0H17.4876V26.0239C17.4772 29.0573 15.0216 31.5138 11.993 31.5138C11.1038 31.5138 10.2643 31.3022 9.52085 30.9262C10.5249 32.2472 12.1103 33.0999 13.8949 33.0999C16.923 33.0999 19.3791 30.6437 19.3897 27.6099V1.58611H24.1239ZM13.6609 15.5696V14.0933C13.1147 14.0184 12.564 13.9809 12.0127 13.9812C5.37812 13.981 0 19.373 0 26.0239C0 30.1936 2.1137 33.8684 5.32562 36.03C3.20717 33.859 1.90192 30.8874 1.90192 27.6097C1.90192 21.0436 7.14329 15.7046 13.6609 15.5696Z" fill="#00F2EA"/>
</g>
<defs>
<filter id="filter0_b_1_1147" x="-20" y="-20" width="74.9827" height="79.6538" filterUnits="userSpaceOnUse" color-interpolation-filters="sRGB">
<feFlood flood-opacity="0" result="BackgroundImageFix"/>
<feGaussianBlur in="BackgroundImageFix" stdDeviation="10"/>
<feComposite in2="SourceAlpha" operator="in" result="effect1_backgroundBlur_1_1147"/>
<feBlend mode="normal" in="SourceGraphic" in2="effect1_backgroundBlur_1_1147" result="shape"/>
</filter>
</defs>
</svg>
