<svg xmlns="http://www.w3.org/2000/svg" xmlns:xlink="http://www.w3.org/1999/xlink" viewBox="0,0,256,256" width="48px" height="48px" fill-rule="nonzero"><g fill="#ffffff" fill-rule="nonzero" stroke="none" stroke-width="1" stroke-linecap="butt" stroke-linejoin="miter" stroke-miterlimit="10" stroke-dasharray="" stroke-dashoffset="0" font-family="none" font-weight="none" font-size="none" text-anchor="none" style="mix-blend-mode: normal"><g transform="scale(10.66667,10.66667)"><path d="M12,2c-6,0 -6,6 -6,6v1c0,0 -0.023,-0.001 -0.063,-0.001c-0.34,0 -1.937,0.07 -1.937,1.396c0,1.545 1.697,1.605 1.965,1.605c0.023,0 0.035,0 0.035,0c0,1 -1.652,2.171 -2.736,2.442c-1.01,0.392 -1.251,1.061 -1.264,1.568c-0.008,0.303 0.066,0.548 0.106,0.643c0.377,0.885 1.497,1.342 2.594,1.342c0.038,1.439 1.076,2.005 1.771,2.005c0.794,0 1.634,-0.388 1.634,-0.388c0.041,0.034 1.32,1.388 3.895,1.388c2.575,0 3.854,-1.354 3.896,-1.388c0,0 0.839,0.388 1.634,0.388c0.695,0 1.732,-0.566 1.77,-2.005c1.097,0 2.217,-0.457 2.594,-1.342c0.04,-0.095 0.114,-0.34 0.106,-0.643c-0.013,-0.507 -0.254,-1.176 -1.264,-1.568c-1.084,-0.271 -2.736,-1.442 -2.736,-2.442c0,0 0.012,0 0.035,0c0.268,0 1.965,-0.06 1.965,-1.605c0,-1.326 -1.597,-1.396 -1.937,-1.396c-0.04,0 -0.063,0.001 -0.063,0.001v-1c0,0 0,-6 -6,-6z"></path></g></g></svg>