<svg width="22" height="27" viewBox="0 0 22 27" fill="none" xmlns="http://www.w3.org/2000/svg">
<path d="M19.6786 27C21.4525 27 22.4607 24.9702 21.3888 23.5567L13.5305 13.1943L20.9523 3.32643C21.9822 1.95715 21.0053 0 19.2919 0C18.633 0 18.0132 0.312572 17.6214 0.84239L11.0496 9.73019L4.44235 0.855599C4.04153 0.317237 3.40984 0 2.73865 0C0.989387 0 -0.00999832 1.99614 1.03809 3.39665L8.37023 13.1943L0.548802 23.6068C-0.500825 25.0042 0.496161 27 2.24381 27C2.91411 27 3.54491 26.683 3.94491 26.1451L11 16.6585L17.9484 26.1238C18.3527 26.6746 18.9952 27 19.6786 27Z" fill="#2A4CC7" fill-opacity="0.25"/>
</svg>
