<svg width="255" height="68" viewBox="0 0 255 68" fill="none" xmlns="http://www.w3.org/2000/svg">
<path d="M92.266 59.9549C83.7269 56.907 78.2006 51.817 71.6427 44.2092C70.8501 43.2897 69.3472 43.6651 69.0893 44.8548C69.0283 45.1364 69.05 45.4301 69.1571 45.6973C73.6587 56.9306 84.672 65.6164 98.0578 67.5762C108.048 69.0389 117.556 64.6797 122.423 61.6337C123.417 61.0118 123.367 59.5919 122.378 58.9631C121.915 58.6689 121.338 58.6246 120.831 58.831C110.988 62.8348 100.669 62.9542 92.266 59.9549Z" fill="#80CAFF"/>
<path d="M126.099 25.3141C122.869 22.6067 118.858 21.0172 114.66 20.781C112.393 20.6433 110.164 20.1262 108.066 19.2511C106.923 18.7966 105.937 18.0152 105.23 17.0034C104.74 16.1472 104.481 15.177 104.479 14.1891C104.425 13.3442 104.618 12.5019 105.036 11.7666C105.453 11.0313 106.076 10.4354 106.827 10.0526C108.772 8.98588 110.961 8.45177 113.176 8.5038C114.577 8.46849 115.975 8.67287 117.308 9.10821C118.334 9.47681 119.283 10.034 120.107 10.7515C120.954 11.4787 121.66 12.3557 122.192 13.3391C122.754 14.3176 123.669 15.0412 124.747 15.3601C125.295 15.5543 125.881 15.6178 126.458 15.5457C127.035 15.4736 127.587 15.2678 128.072 14.9446C128.521 14.6655 128.901 14.2876 129.184 13.8394C129.467 13.3913 129.646 12.8844 129.706 12.3569C129.813 11.24 129.52 10.1213 128.879 9.20265C127.894 7.55264 126.665 6.06244 125.235 4.78286C123.767 3.51948 122.079 2.53974 120.257 1.893C118.143 1.12866 115.911 0.745037 113.664 0.759718C110.719 0.722823 107.792 1.22195 105.023 2.23298C102.553 3.10959 100.365 4.64362 98.6932 6.67166C97.0696 8.73879 96.2128 11.3101 96.2701 13.9435C96.2508 15.7971 96.6478 17.6311 97.4317 19.3088C98.2155 20.9865 99.3659 22.4647 100.797 23.6331C104.221 26.3593 108.402 27.9498 112.763 28.1851C115.423 28.2454 117.988 29.1958 120.051 30.8861C120.703 31.498 121.225 32.2374 121.584 33.0591C121.942 33.8808 122.13 34.7674 122.136 35.6647C122.186 36.9081 121.763 38.1239 120.952 39.0646C120.03 40.0737 118.876 40.8392 117.59 41.2934C114.621 42.3359 111.394 42.3691 108.405 41.3878C107.125 40.9612 105.925 40.3228 104.854 39.499C104.061 38.8929 103.419 38.1108 102.976 37.2136C102.551 36.2942 101.847 35.5337 100.966 35.0414C100.11 34.5587 99.109 34.4044 98.1485 34.607C97.5688 34.6917 97.0152 34.9052 96.5278 35.2319C96.0405 35.5586 95.6316 35.9904 95.3308 36.4958C95.0384 36.9903 94.8763 37.5517 94.8598 38.1268C94.8434 38.7019 94.9732 39.2717 95.2369 39.7823C96.1324 41.8354 97.4968 43.6473 99.2192 45.071C101.075 46.5942 103.187 47.7712 105.455 48.5463C107.875 49.3736 110.414 49.7885 112.969 49.7741C115.12 49.7791 117.262 49.4932 119.337 48.9241C121.359 48.3825 123.267 47.4804 124.972 46.2609C126.617 45.0755 127.983 43.5408 128.973 41.7656C130.003 39.8133 130.521 37.6288 130.476 35.4192C130.512 33.5174 130.14 31.6301 129.385 29.8862C128.629 28.1423 127.509 26.5828 126.099 25.3141Z" fill="#80CAFF"/>
<path d="M177.531 16.7966C175.66 15.7518 173.548 15.2178 171.408 15.2478C168.955 15.2192 166.536 15.824 164.382 17.0044C163.193 17.6587 162.12 18.5077 161.208 19.5165C160.378 18.4241 159.336 17.5117 158.146 16.8344C156.209 15.7887 154.039 15.2556 151.841 15.2853C149.643 15.3151 147.488 15.9066 145.58 17.0044C145.106 17.2993 144.654 17.6275 144.227 17.9865C144.071 17.4744 143.794 17.0078 143.419 16.6266C142.727 15.9895 141.822 15.6362 140.884 15.6362C139.945 15.6362 139.04 15.9895 138.348 16.6266C138.008 16.9588 137.742 17.3593 137.568 17.802C137.393 18.2447 137.313 18.7195 137.333 19.1954V45.2608C137.348 45.9631 137.567 46.6458 137.962 47.2251C138.357 47.8044 138.912 48.2551 139.558 48.5218C140.204 48.7886 140.914 48.8598 141.6 48.7268C142.286 48.5937 142.918 48.2622 143.419 47.7729C143.74 47.4401 143.991 47.0467 144.159 46.6154C144.326 46.1842 144.407 45.7237 144.396 45.2608V28.696C144.367 27.7786 144.518 26.8643 144.84 26.0055C145.163 25.1467 145.65 24.3601 146.275 23.6907C146.865 23.066 147.58 22.5746 148.374 22.249C149.167 21.9234 150.02 21.771 150.877 21.8019C151.669 21.7614 152.461 21.8847 153.204 22.164C153.947 22.4434 154.626 22.873 155.197 23.4263C155.794 24.1204 156.248 24.9272 156.532 25.7995C156.816 26.6719 156.924 27.5923 156.85 28.5071V45.2608C156.834 45.7305 156.915 46.1985 157.087 46.6355C157.259 47.0725 157.519 47.4691 157.85 47.8006C158.182 48.1321 158.578 48.3913 159.013 48.562C159.449 48.7327 159.914 48.8113 160.381 48.7929C160.854 48.8099 161.325 48.728 161.765 48.5524C162.205 48.3769 162.604 48.1114 162.936 47.7729C163.258 47.4347 163.509 47.0345 163.674 46.5963C163.839 46.1582 163.914 45.691 163.894 45.223V28.696C163.843 26.8445 164.518 25.047 165.773 23.6907C166.358 23.0655 167.07 22.5736 167.861 22.2478C168.651 21.922 169.502 21.77 170.356 21.8019C171.148 21.7636 171.939 21.8879 172.682 22.1672C173.425 22.4465 174.103 22.8748 174.676 23.4263C175.27 24.1219 175.72 24.9294 176.001 25.8016C176.281 26.6739 176.387 27.5936 176.31 28.5071V45.2608C176.3 45.7291 176.384 46.1946 176.558 46.6291C176.733 47.0636 176.993 47.458 177.323 47.7883C177.653 48.1186 178.047 48.378 178.48 48.5507C178.913 48.7234 179.376 48.8058 179.842 48.7929C180.315 48.8134 180.787 48.7331 181.228 48.5574C181.668 48.3816 182.066 48.1143 182.396 47.7729C182.717 47.4401 182.968 47.0467 183.136 46.6154C183.303 46.1842 183.384 45.7237 183.373 45.2608V28.4694C183.436 26.006 182.928 23.5616 181.889 21.3297C180.932 19.4062 179.411 17.8241 177.531 16.7966Z" fill="white"/>
<path d="M196.071 15.5496C195.608 15.5361 195.146 15.6161 194.714 15.7848C194.282 15.9535 193.887 16.2075 193.554 16.5318C193.219 16.8667 192.955 17.2678 192.781 17.7098C192.606 18.1518 192.524 18.6252 192.54 19.1005V45.166C192.528 45.6351 192.612 46.1017 192.787 46.537C192.961 46.9723 193.222 47.367 193.554 47.6969C193.887 48.0238 194.28 48.2806 194.712 48.4525C195.145 48.6244 195.607 48.7079 196.071 48.698C196.537 48.7138 197.001 48.6332 197.434 48.4613C197.867 48.2894 198.261 48.0298 198.59 47.6986C198.919 47.3674 199.178 46.9717 199.349 46.5361C199.52 46.1004 199.6 45.6341 199.584 45.166V19.1005C199.611 18.627 199.539 18.1531 199.371 17.7098C199.203 17.2666 198.944 16.864 198.61 16.5287C198.277 16.1933 197.876 15.9327 197.436 15.7639C196.995 15.5952 196.523 15.5221 196.053 15.5496H196.071Z" fill="white"/>
<path d="M196.071 2.61121C195.493 2.60609 194.921 2.71896 194.388 2.94299C193.855 3.16702 193.373 3.49753 192.971 3.91448C192.555 4.31728 192.225 4.80165 192.002 5.33769C191.779 5.87373 191.668 6.45003 191.675 7.031C191.668 7.61198 191.779 8.18828 192.002 8.72432C192.225 9.26035 192.555 9.74473 192.971 10.1475C193.378 10.5604 193.862 10.8882 194.396 11.1118C194.93 11.3355 195.502 11.4506 196.08 11.4506C196.658 11.4506 197.23 11.3355 197.764 11.1118C198.298 10.8882 198.782 10.5604 199.189 10.1475C199.599 9.73997 199.924 9.25466 200.147 8.71969C200.369 8.18473 200.483 7.61075 200.483 7.031C200.483 6.45126 200.369 5.87728 200.147 5.34231C199.924 4.80735 199.599 4.32203 199.189 3.91448C198.785 3.49521 198.3 3.16335 197.763 2.93924C197.227 2.71514 196.651 2.60351 196.071 2.61121Z" fill="white"/>
<path d="M219.137 41.7286H217.691C217.344 41.7086 217.009 41.592 216.724 41.3919C216.439 41.1918 216.214 40.916 216.076 40.5953C215.543 39.5851 215.284 38.4516 215.324 37.3088V5.3314C215.335 4.87387 215.252 4.419 215.082 3.99467C214.911 3.57033 214.657 3.18545 214.333 2.86362C214.009 2.54178 213.624 2.28976 213.2 2.123C212.776 1.95624 212.323 1.87824 211.868 1.89379C211.407 1.88076 210.949 1.961 210.52 2.12972C210.09 2.29845 209.699 2.55223 209.37 2.87596C209.046 3.20619 208.792 3.59919 208.625 4.03106C208.457 4.46292 208.378 4.92462 208.393 5.38807V37.3088C208.353 39.3145 208.744 41.3053 209.539 43.1452C210.256 44.774 211.39 46.182 212.826 47.225C214.251 48.2254 215.954 48.7476 217.691 48.7171H217.804C218.934 48.7665 220.05 48.4414 220.978 47.7916C221.395 47.5131 221.736 47.1335 221.969 46.688C222.202 46.2424 222.32 45.7451 222.312 45.2417C222.348 44.3307 222.039 43.4399 221.448 42.7485C221.159 42.4203 220.803 42.159 220.404 41.9829C220.005 41.8068 219.573 41.72 219.137 41.7286Z" fill="white"/>
<path d="M254.057 33.8718C254.363 33.5855 254.605 33.237 254.767 32.8495C254.929 32.462 255.007 32.0443 254.997 31.6241C255.052 28.7218 254.441 25.8456 253.212 23.219C252.077 20.823 250.277 18.8089 248.028 17.4204C245.579 15.9676 242.774 15.2346 239.932 15.3049C236.984 15.2587 234.078 16.0088 231.516 17.477C229.079 18.8795 227.081 20.9407 225.75 23.4268C224.32 26.0941 223.596 29.0857 223.646 32.1152C223.598 35.1562 224.357 38.1551 225.844 40.8037C227.3 43.3106 229.411 45.3684 231.948 46.7534C234.182 47.9439 236.636 48.6589 239.157 48.8539C241.678 49.0489 244.211 48.7196 246.6 47.8867C248.425 47.3249 250.145 46.4633 251.691 45.3368C252.062 45.0841 252.363 44.7393 252.564 44.3357C252.765 43.9321 252.858 43.4832 252.836 43.0325C252.799 42.5804 252.67 42.1409 252.457 41.7412C252.244 41.3415 251.951 40.9903 251.597 40.7093C251 40.188 250.226 39.9175 249.436 39.9537C248.632 39.9727 247.855 40.2508 247.22 40.747C245.349 42.0112 243.161 42.7183 240.908 42.7869C238.941 42.8237 236.998 42.3418 235.273 41.3892C233.71 40.4873 232.413 39.1835 231.516 37.6116C231.009 36.721 230.636 35.7599 230.408 34.7596H251.878C252.692 34.7608 253.474 34.4423 254.057 33.8718ZM231.178 26.6377C231.909 25.076 233.078 23.7631 234.541 22.8601C236.173 21.8996 238.041 21.4217 239.932 21.4813C241.506 21.4209 243.062 21.8345 244.4 22.6691C245.739 23.5036 246.799 24.7211 247.445 26.1655C247.869 27.0527 248.172 27.9929 248.347 28.9609H230.277C230.491 28.1555 230.794 27.3764 231.178 26.6377Z" fill="white"/>
<path d="M29.0614 0.553487C28.8176 0.3984 28.5415 0.301884 28.2545 0.271425C27.9676 0.240965 27.6775 0.277382 27.4069 0.377851C27.1362 0.478319 26.8922 0.640137 26.6937 0.850754C26.4953 1.06137 26.3477 1.31512 26.2626 1.59233L15.4993 25.6179L4.07855 1.53566C3.9733 1.27583 3.81539 1.04087 3.61488 0.845758C3.41437 0.650646 3.17566 0.49965 2.91394 0.402383C2.64537 0.316184 2.36231 0.285141 2.08157 0.311098C1.80084 0.337056 1.52815 0.419484 1.27972 0.553487C1.01669 0.658934 0.777774 0.81715 0.577546 1.01849C0.377318 1.21982 0.219973 1.46006 0.115106 1.72454C0.0230641 1.98878 -0.0144135 2.26911 0.00496506 2.54841C0.0243436 2.8277 0.100171 3.10009 0.227811 3.34891L13.2264 30.4154L7.44091 43.2593C7.28754 43.5094 7.19434 43.7922 7.16874 44.085C7.14315 44.3777 7.18585 44.6725 7.29346 44.9458C7.40108 45.219 7.57062 45.4633 7.78861 45.659C8.00661 45.8548 8.26703 45.9968 8.54917 46.0736C8.8825 46.215 9.23938 46.2919 9.60108 46.3002C9.98232 46.2742 10.3466 46.1319 10.6453 45.8923C10.944 45.6527 11.1629 45.3272 11.2729 44.9592L30.057 3.25447C30.1906 3.01558 30.2709 2.75032 30.2923 2.47709C30.3137 2.20387 30.2758 1.92923 30.181 1.67224C30.0863 1.41525 29.9371 1.18206 29.7438 0.988874C29.5504 0.795685 29.3176 0.647119 29.0614 0.553487Z" fill="white"/>
<path d="M61.2753 7.69246C60.1455 5.35165 58.3725 3.38528 56.166 2.02606C53.8405 0.633782 51.1701 -0.0669876 48.4645 0.00504369C45.6801 -0.0481976 42.9357 0.677662 40.5376 2.10161C38.2554 3.50442 36.3927 5.50141 35.1466 7.88134C33.8309 10.5012 33.1853 13.4094 33.2682 16.3432C33.2207 19.2836 33.9326 22.1862 35.3344 24.7672C36.6552 27.1732 38.6035 29.1715 40.9697 30.5469C43.515 31.9846 46.3905 32.727 49.3098 32.7002C51.2377 32.671 53.1453 32.3001 54.945 31.6047C56.7217 30.999 58.3758 30.0778 59.8289 28.8848C60.0464 28.7249 60.2217 28.5139 60.3395 28.2703C60.4574 28.0267 60.5142 27.7578 60.5051 27.4871C60.4833 27.1917 60.4021 26.9038 60.2665 26.6408C60.1309 26.3779 59.9437 26.1453 59.7162 25.9572C59.3214 25.646 58.8268 25.4914 58.3262 25.5227C57.7916 25.5403 57.2772 25.7326 56.861 26.0705C55.8612 26.9172 54.7062 27.5589 53.4611 27.9593C52.1034 28.4416 50.6746 28.6906 49.2347 28.6959C47.0758 28.7394 44.9458 28.1909 43.0735 27.1093C41.3196 26.0359 39.8907 24.5011 38.941 22.6706C38.1103 21.1709 37.6106 19.5088 37.4758 17.7975H60.9747C61.5112 17.8367 62.0423 17.6677 62.4587 17.3253C62.6586 17.1348 62.8144 16.9023 62.9151 16.6445C63.0157 16.3866 63.0587 16.1096 63.041 15.8332C63.1037 13.0171 62.4984 10.2265 61.2753 7.69246ZM42.6414 5.67144C44.3952 4.60377 46.4149 4.06002 48.4645 4.10374C50.4483 4.05277 52.4046 4.57736 54.0998 5.61478C55.6851 6.65349 56.9478 8.11962 57.7439 9.84569C58.375 11.1888 58.763 12.6343 58.8897 14.1144H37.5697C37.7409 12.6988 38.1406 11.3207 38.7531 10.0346C39.6191 8.24393 40.9659 6.73259 42.6414 5.67144Z" fill="white"/>
<path d="M78.8764 32.6062C76.4848 32.6089 74.1099 32.2066 71.8512 31.4162C69.7839 30.7433 67.9131 29.5692 66.4038 27.9975C66.1851 27.7652 66.0196 27.4876 65.919 27.1841C65.8184 26.8806 65.7851 26.5587 65.8215 26.2409C65.8599 25.9175 65.9628 25.6053 66.1242 25.3229C66.2856 25.0405 66.5021 24.7938 66.7607 24.5977C67.286 24.162 67.9608 23.9516 68.6391 24.0121C69.2533 24.0736 69.8226 24.3632 70.2357 24.8243C71.1803 25.9164 72.3813 26.754 73.7296 27.2609C75.3287 27.8812 77.031 28.1889 78.7449 28.1675C80.805 28.3261 82.8639 27.8448 84.6431 26.7887C85.2031 26.4091 85.6654 25.9012 85.992 25.3069C86.3185 24.7125 86.5 24.0486 86.5215 23.3699C86.5121 22.6991 86.3351 22.0413 86.0069 21.4572C85.6786 20.873 85.2097 20.3812 84.6431 20.0268C82.6702 18.8827 80.4828 18.1623 78.219 17.9113C75.1167 17.5809 72.1559 16.4343 69.6346 14.587C68.7869 13.9098 68.103 13.048 67.6344 12.0665C67.1659 11.0849 66.9249 10.0093 66.9297 8.92062C66.8633 7.12425 67.4361 5.36295 68.5451 3.95307C69.7242 2.58727 71.2499 1.56889 72.9594 1.00654C74.7645 0.341798 76.6723 0.00290363 78.5946 0.00548054C80.9177 -0.0556756 83.2259 0.395622 85.3569 1.32764C87.1489 2.11952 88.7267 3.33049 89.959 4.8597C90.1598 5.09862 90.3113 5.37527 90.4048 5.67358C90.4983 5.97189 90.532 6.2859 90.5038 6.59739C90.4693 6.89606 90.3643 7.18213 90.1977 7.43181C90.0311 7.68149 89.8076 7.88756 89.5458 8.03288C89.2881 8.2034 88.9995 8.32119 88.6966 8.37953C88.3936 8.43786 88.0822 8.4356 87.7801 8.37286C87.1146 8.27573 86.5035 7.94846 86.0519 7.44735C85.1363 6.42597 83.9985 5.63092 82.7272 5.12413C81.3709 4.61179 79.9305 4.36186 78.4819 4.3875C76.8099 4.36324 75.1642 4.80801 73.7296 5.67188C73.1725 5.97073 72.7047 6.41357 72.3745 6.95474C72.0444 7.49592 71.8637 8.11585 71.8512 8.75062C71.8381 9.54373 72.0676 10.3217 72.5086 10.9794C73.1458 11.7334 73.9683 12.3064 74.8942 12.6416C76.4852 13.2507 78.1344 13.6938 79.8156 13.9637C82.219 14.2965 84.5532 15.0172 86.7282 16.0981C88.1902 16.8222 89.4348 17.9238 90.3347 19.2901C91.0512 20.5073 91.4215 21.899 91.4054 23.3133C91.4426 25.0527 90.9004 26.7546 89.8651 28.1486C88.7354 29.6174 87.238 30.7581 85.526 31.454C83.4139 32.3012 81.1487 32.6937 78.8764 32.6062Z" fill="white"/>
</svg>
