<svg width="67" height="74" viewBox="0 0 67 74" fill="none" xmlns="http://www.w3.org/2000/svg">
<g filter="url(#filter0_b_1_992)">
<path d="M62 45.6603C68.6666 41.8113 68.6667 32.1887 62 28.3397L15.5 1.49297C8.83336 -2.35603 0.5 2.45521 0.5 10.1532V63.8468C0.5 71.5448 8.83334 76.356 15.5 72.507L62 45.6603Z" fill="white" fill-opacity="0.5"/>
<path d="M61.5 44.7942C67.5 41.3301 67.5 32.6699 61.5 29.2058L15 2.359C9.00002 -1.10511 1.5 3.22501 1.5 10.1532V63.8468C1.5 70.775 9.00001 75.1051 15 71.641L61.5 44.7942Z" stroke="url(#paint0_linear_1_992)" stroke-width="2"/>
</g>
<defs>
<filter id="filter0_b_1_992" x="-21.5" y="-21.8618" width="110.5" height="117.724" filterUnits="userSpaceOnUse" color-interpolation-filters="sRGB">
<feFlood flood-opacity="0" result="BackgroundImageFix"/>
<feGaussianBlur in="BackgroundImageFix" stdDeviation="11"/>
<feComposite in2="SourceAlpha" operator="in" result="effect1_backgroundBlur_1_992"/>
<feBlend mode="normal" in="SourceGraphic" in2="effect1_backgroundBlur_1_992" result="shape"/>
</filter>
<linearGradient id="paint0_linear_1_992" x1="55.4088" y1="7.9635" x2="-19.9745" y2="82.6022" gradientUnits="userSpaceOnUse">
<stop stop-color="white"/>
<stop offset="1" stop-color="white" stop-opacity="0"/>
</linearGradient>
</defs>
</svg>
