<svg width="44" height="44" viewBox="0 0 44 44" fill="none" xmlns="http://www.w3.org/2000/svg">
<path d="M17.8442 30.1152C17.603 30.1152 17.402 30.0348 17.2412 29.874C17.0804 29.7132 17 29.5122 17 29.271C17 29.1473 17.0216 29.0344 17.0649 28.9324C17.1082 28.8303 17.167 28.7391 17.2412 28.6587L23.9951 22.0532L17.2412 15.4478C17.0804 15.2746 17 15.0736 17 14.8447C17 14.6035 17.0804 14.4025 17.2412 14.2417C17.402 14.0809 17.603 14.0005 17.8442 14.0005C18.0731 14.0005 18.2772 14.084 18.4565 14.251L25.8042 21.4316C25.9836 21.5924 26.0732 21.7996 26.0732 22.0532C26.0732 22.2882 25.9805 22.4985 25.7949 22.6841L18.4473 29.8647C18.2803 30.0317 18.0793 30.1152 17.8442 30.1152Z" fill="white"/>
<rect x="1" y="1" width="42" height="42" rx="21" stroke="white" stroke-width="2"/>
</svg>
