<svg width="44" height="44" viewBox="0 0 44 44" fill="none" xmlns="http://www.w3.org/2000/svg">
<path d="M26.1558 30.1152C26.397 30.1152 26.598 30.0348 26.7588 29.874C26.9196 29.7132 27 29.5122 27 29.271C27 29.1473 26.9784 29.0344 26.9351 28.9324C26.8918 28.8303 26.833 28.7391 26.7588 28.6587L20.0049 22.0532L26.7588 15.4478C26.9196 15.2746 27 15.0736 27 14.8447C27 14.6035 26.9196 14.4025 26.7588 14.2417C26.598 14.0809 26.397 14.0005 26.1558 14.0005C25.9269 14.0005 25.7228 14.084 25.5435 14.251L18.1958 21.4316C18.0164 21.5924 17.9268 21.7996 17.9268 22.0532C17.9268 22.2882 18.0195 22.4985 18.2051 22.6841L25.5527 29.8647C25.7197 30.0317 25.9207 30.1152 26.1558 30.1152Z" fill="white"/>
<rect x="-1" y="1" width="42" height="42" rx="21" transform="matrix(-1 0 0 1 42 0)" stroke="white" stroke-width="2"/>
</svg>
