<svg width="24" height="20" viewBox="0 0 24 20" fill="none" xmlns="http://www.w3.org/2000/svg">
<path d="M7.63747 19.2461C9.70538 19.2461 11.6112 18.8448 13.3551 18.0424C14.9446 17.3016 16.3335 16.26 17.5217 14.9174C18.6328 13.6674 19.4893 12.2476 20.0912 10.6581C20.6776 9.11489 20.9708 7.55625 20.9708 5.98217C20.9708 5.7044 20.9631 5.50378 20.9477 5.38032C21.8736 4.71674 22.6529 3.90656 23.2856 2.94977C22.4214 3.33557 21.5264 3.58248 20.6004 3.69051C21.0788 3.3973 21.4955 3.03079 21.8504 2.59097C22.2054 2.15116 22.4754 1.66119 22.6606 1.12106C21.7347 1.66119 20.7393 2.03156 19.6745 2.23218C19.1961 1.73835 18.6367 1.36412 17.9963 1.10949C17.3558 0.85486 16.6923 0.742977 16.0055 0.773842C15.3188 0.804707 14.6707 0.986032 14.0611 1.31782C13.4515 1.64961 12.9384 2.08943 12.5217 2.63727C12.1051 3.18511 11.8234 3.79467 11.6768 4.46597C11.5302 5.13727 11.5418 5.81242 11.7115 6.49143C9.82883 6.39884 8.04643 5.92816 6.36433 5.0794C4.68223 4.23063 3.24704 3.08094 2.05877 1.63032C1.6421 2.32477 1.42605 3.06937 1.41062 3.86412C1.39519 4.65887 1.57266 5.41119 1.94303 6.12106C2.3134 6.83094 2.83038 7.40964 3.49396 7.85717C2.73778 7.82631 2.02791 7.62569 1.36433 7.25532V7.32477C1.37976 8.05008 1.54565 8.7368 1.86201 9.38495C2.17837 10.0331 2.62204 10.5771 3.19303 11.0169C3.76402 11.4567 4.41217 11.7538 5.13747 11.9081C4.4276 12.0933 3.71772 12.1164 3.00784 11.9775C3.31649 12.9343 3.8759 13.7098 4.68609 14.3039C5.49627 14.8981 6.39519 15.2029 7.38284 15.2183C6.56494 15.8664 5.65445 16.3641 4.65136 16.7113C3.64828 17.0586 2.62204 17.2245 1.57266 17.209C1.20229 17.209 0.831918 17.1936 0.461548 17.1627C1.52636 17.8417 2.6722 18.3587 3.89905 18.7137C5.1259 19.0686 6.37204 19.2461 7.63747 19.2461Z" fill="#2A4CC7"/>
</svg>
