<svg width="22" height="22" viewBox="0 0 22 22" fill="none" xmlns="http://www.w3.org/2000/svg">
<path d="M9.82046 15.2388L11.001 14.0582C11.1553 13.9039 11.2942 13.7418 11.4177 13.5721C10.7387 13.5258 10.1214 13.2249 9.56583 12.6693C9.10287 12.2063 8.79422 11.6932 8.6399 11.13C8.48558 10.5667 8.48558 9.99956 8.6399 9.42857C8.79422 8.85758 9.10287 8.34061 9.56583 7.87764L13.6168 3.84986C14.0643 3.3869 14.5735 3.0744 15.1445 2.91236C15.7155 2.75033 16.2826 2.75033 16.8459 2.91236C17.4092 3.0744 17.9223 3.3869 18.3853 3.84986C18.8482 4.31283 19.1607 4.8298 19.3228 5.40079C19.4848 5.97178 19.4887 6.53891 19.3343 7.10218C19.18 7.66545 18.8714 8.17857 18.4084 8.64153L16.9501 10.0767C17.1198 10.4934 17.2201 10.9255 17.251 11.373C17.2973 11.8823 17.2587 12.3684 17.1353 12.8313L19.9362 10.0073C20.6769 9.28196 21.1746 8.46021 21.4293 7.542C21.6839 6.62379 21.6839 5.70943 21.4293 4.79894C21.1746 3.88844 20.6731 3.05897 19.9246 2.31051C19.1762 1.56206 18.3467 1.06051 17.4362 0.805883C16.5257 0.551254 15.6114 0.551254 14.6931 0.805883C13.7749 1.06051 12.9532 1.5582 12.2279 2.29894L8.0149 6.48875C7.27416 7.2295 6.77648 8.05511 6.52185 8.96561C6.26722 9.8761 6.26722 10.7905 6.52185 11.7087C6.77648 12.6269 7.28188 13.4563 8.03805 14.1971C8.59361 14.7681 9.18774 15.1153 9.82046 15.2388ZM10.0288 19.9378L14.2186 15.748C14.9593 15.0073 15.457 14.1778 15.7117 13.2596C15.9663 12.3414 15.9663 11.427 15.7117 10.5165C15.457 9.60604 14.9593 8.77271 14.2186 8.01653C13.6631 7.47641 13.0612 7.1369 12.4131 6.99801L11.2093 8.17857C11.055 8.33289 10.9161 8.48721 10.7927 8.64153C11.4717 8.68783 12.0967 8.99647 12.6677 9.56746C13.1306 10.0304 13.4431 10.5474 13.6052 11.1184C13.7672 11.6894 13.7672 12.2565 13.6052 12.8198C13.4431 13.383 13.1306 13.8962 12.6677 14.3591L8.6399 18.3869C8.17694 18.8499 7.65996 19.1624 7.08898 19.3244C6.51799 19.4864 5.95086 19.4864 5.38759 19.3244C4.82432 19.1624 4.3112 18.846 3.84824 18.3753C3.38527 17.9046 3.07277 17.3877 2.91074 16.8244C2.7487 16.2611 2.7487 15.6979 2.91074 15.1346C3.07277 14.5713 3.38527 14.0582 3.84824 13.5952L5.30657 12.1369C5.12138 11.7357 5.01336 11.3113 4.98249 10.8638C4.9362 10.3545 4.98249 9.86838 5.12138 9.40542L2.29731 12.2063C1.55657 12.9471 1.05888 13.7766 0.804253 14.6948C0.549624 15.613 0.549624 16.5273 0.804253 17.4378C1.05888 18.3483 1.56043 19.1778 2.30888 19.9263C3.05734 20.6747 3.88682 21.1763 4.79731 21.4309C5.7078 21.6855 6.62216 21.6855 7.54036 21.4309C8.45857 21.1763 9.28805 20.6786 10.0288 19.9378Z" fill="#2A4CC7"/>
</svg>
