<svg width="22" height="22" viewBox="0 0 22 22" fill="none" xmlns="http://www.w3.org/2000/svg">
<path d="M12.709 21.4022V14.0873H15.1396L15.6025 11.0781H12.709V9.1105C12.709 8.64753 12.8248 8.26945 13.0562 7.97624C13.3495 7.63673 13.797 7.46698 14.3988 7.46698H15.7183V4.89753C14.9467 4.77408 14.1674 4.70463 13.3803 4.6892C12.1612 4.6892 11.1967 5.048 10.4868 5.76559C9.77693 6.48318 9.42199 7.48241 9.42199 8.76327V11.0781H6.7831V14.0873H9.42199V21.4022C7.66273 21.1244 6.07322 20.4377 4.65347 19.342C3.28001 18.2772 2.23834 16.9577 1.52847 15.3836C0.80316 13.7478 0.50995 12.0387 0.648839 10.2563C0.787727 8.47392 1.34328 6.83426 2.31551 5.33735C3.2723 3.88673 4.51458 2.74475 6.04236 1.91142C7.601 1.04722 9.27538 0.615126 11.0655 0.615126C12.8556 0.615126 14.53 1.04722 16.0887 1.91142C17.6164 2.74475 18.8587 3.88673 19.8155 5.33735C20.7877 6.83426 21.3433 8.47392 21.4822 10.2563C21.6211 12.0387 21.3279 13.7478 20.6025 15.3836C19.8927 16.9577 18.851 18.2772 17.4775 19.342C16.0578 20.4377 14.4683 21.1244 12.709 21.4022Z" fill="#2A4CC7"/>
</svg>
