<svg width="23" height="18" viewBox="0 0 23 18" fill="none" xmlns="http://www.w3.org/2000/svg">
<path d="M11.3635 9.9753C11.7647 9.9753 12.1814 9.75925 12.6135 9.32716L21.1552 0.831785C20.7539 0.507711 20.0826 0.345675 19.1413 0.345675H3.35425C2.50548 0.345675 1.90363 0.499994 1.54869 0.808638L10.1135 9.32716C10.5456 9.75925 10.9623 9.9753 11.3635 9.9753ZM0.507026 16.0401L7.61351 8.97993L0.553322 1.98919C0.337273 2.3287 0.229248 2.88425 0.229248 3.65586V14.4429C0.229248 15.1836 0.321841 15.716 0.507026 16.0401ZM22.1968 16.0401C22.382 15.7006 22.4746 15.1682 22.4746 14.4429V3.65586C22.4746 2.89969 22.3666 2.35185 22.1505 2.01234L15.1135 8.97993L22.1968 16.0401ZM19.3265 17.7531C20.2215 17.7531 20.862 17.5833 21.2478 17.2438L14.0024 10.0447L13.4237 10.6003C12.7601 11.2639 12.0734 11.5957 11.3635 11.5957C10.6536 11.5957 9.95919 11.2639 9.28017 10.6003L8.72462 10.0447L1.47925 17.2438C1.89591 17.5833 2.59036 17.7531 3.56258 17.7531H19.3265Z" fill="#2A4CC7"/>
</svg>
