<svg width="136" height="36" viewBox="0 0 136 36" fill="none" xmlns="http://www.w3.org/2000/svg">
<path d="M65.1925 32.6801C65.1925 32.6801 65.0925 32.7501 64.9025 32.8801C64.8025 32.9401 64.6925 33.0201 64.5525 33.1201C64.4825 33.1701 64.4125 33.2201 64.3225 33.2701C64.2325 33.3201 64.1425 33.3701 64.0425 33.4301C63.8425 33.5401 63.6225 33.6701 63.3725 33.8101C63.1325 33.9301 62.8625 34.0601 62.5825 34.2001C62.3025 34.3401 61.9825 34.4601 61.6525 34.6001C61.4925 34.6701 61.3125 34.7301 61.1425 34.7901C60.9625 34.8501 60.7825 34.9201 60.6025 34.9801C60.2325 35.1001 59.8325 35.2101 59.4325 35.3301C59.2225 35.3801 59.0125 35.4301 58.8025 35.4701C58.5925 35.5201 58.3725 35.5701 58.1525 35.6001C57.9325 35.6401 57.7025 35.6801 57.4725 35.7101C57.2425 35.7401 57.0125 35.7701 56.7725 35.8001C56.6525 35.8101 56.5325 35.8301 56.4125 35.8401C56.2925 35.8501 56.1725 35.8601 56.0525 35.8601C55.8125 35.8701 55.5625 35.8901 55.3225 35.9001C54.8325 35.9001 54.3225 35.9201 53.8125 35.8801C53.5625 35.8601 53.3025 35.8601 53.0425 35.8301C52.7825 35.8001 52.5325 35.7801 52.2725 35.7501C51.2425 35.6201 50.2025 35.4001 49.1825 35.1101C48.1725 34.8001 47.1825 34.4301 46.2325 33.9801C46.0025 33.8601 45.7725 33.7501 45.5425 33.6301C45.3125 33.5201 45.0925 33.3801 44.8725 33.2601C44.4225 33.0201 44.0125 32.7301 43.5925 32.4601C43.1925 32.1701 42.7925 31.9001 42.4225 31.5901C42.2425 31.4401 42.0525 31.2901 41.8825 31.1401C41.7125 30.9801 41.5425 30.8301 41.3725 30.6801C41.2025 30.5301 41.0425 30.3701 40.8925 30.2201C40.7425 30.0601 40.5925 29.9101 40.4425 29.7601C40.3025 29.6001 40.1625 29.4501 40.0325 29.2901C39.9025 29.1301 39.7625 28.9901 39.6425 28.8301C39.5225 28.6801 39.4025 28.5201 39.2925 28.3801C39.1725 28.2301 39.0625 28.0901 38.9625 27.9401C38.8625 27.7901 38.7625 27.6501 38.6625 27.5101C38.5625 27.3701 38.4725 27.2401 38.3925 27.1001C38.2325 26.8301 38.0725 26.5801 37.9325 26.3401C37.8025 26.1001 37.6925 25.8801 37.5825 25.6801C37.5325 25.5801 37.4825 25.4901 37.4325 25.4001C37.3925 25.3101 37.3525 25.2201 37.3125 25.1401C37.2425 24.9801 37.1825 24.8401 37.1325 24.7301C37.0325 24.5101 36.9825 24.3901 36.9825 24.3901C36.8025 23.9801 36.9925 23.5101 37.4025 23.3301C37.7525 23.1801 38.1425 23.2901 38.3625 23.5801L38.3925 23.6201C38.3925 23.6201 38.4625 23.7101 38.6025 23.8901C38.7425 24.0701 38.9225 24.3301 39.1825 24.6501C39.3125 24.8101 39.4525 24.9901 39.6125 25.1801C39.7825 25.3601 39.9525 25.5701 40.1425 25.7801C40.5225 26.2001 40.9625 26.6601 41.4625 27.1401C41.7125 27.3801 41.9825 27.6101 42.2625 27.8601C42.4025 27.9801 42.5525 28.1001 42.7025 28.2201C42.8525 28.3401 43.0025 28.4701 43.1625 28.5801C43.3225 28.7001 43.4825 28.8201 43.6425 28.9401C43.8025 29.0601 43.9725 29.1701 44.1425 29.2901C44.4725 29.5301 44.8425 29.7401 45.2025 29.9701C45.9425 30.4001 46.7225 30.8101 47.5325 31.1701C48.3525 31.5201 49.2025 31.8401 50.0725 32.0901C50.9425 32.3401 51.8325 32.5301 52.7125 32.6801C53.5925 32.8101 54.4725 32.8901 55.3225 32.9201C55.7525 32.9201 56.1725 32.9401 56.5825 32.9201C56.7925 32.9201 56.9925 32.9201 57.1925 32.9001C57.3925 32.8801 57.5925 32.8701 57.7925 32.8501C57.9925 32.8401 58.1825 32.8201 58.3725 32.7901C58.5625 32.7701 58.7525 32.7501 58.9325 32.7201C59.3025 32.6601 59.6525 32.6101 59.9925 32.5401C60.6725 32.4101 61.2925 32.2601 61.8425 32.1101C62.1125 32.0301 62.3725 31.9501 62.6125 31.8901C62.8425 31.8101 63.0525 31.7401 63.2425 31.6801C63.3425 31.6501 63.4325 31.6201 63.5125 31.5901C63.6025 31.5601 63.6825 31.5201 63.7625 31.4901C63.9225 31.4301 64.0525 31.3801 64.1625 31.3401C64.3825 31.2601 64.4925 31.2201 64.4925 31.2201C64.9125 31.0701 65.3725 31.2801 65.5325 31.7001C65.6625 32.0501 65.5325 32.4401 65.2325 32.6501L65.1925 32.6801Z" fill="#80CAFF"/>
<path d="M67.1225 13.4202C65.6525 12.0902 63.6025 11.2801 61.0325 11.0201C59.4925 10.8601 58.3125 10.5902 57.5225 10.2102C56.7825 9.85015 56.2725 9.44016 56.0125 8.98016C55.7425 8.50016 55.6125 8.01015 55.6125 7.49015C55.6125 6.48015 56.0125 5.78015 56.8625 5.29015C57.7625 4.78015 58.9125 4.51015 60.2725 4.51015C61.1025 4.51015 61.8625 4.61015 62.4725 4.83015C63.0425 5.04015 63.5425 5.33015 63.9625 5.70015C64.3825 6.07015 64.7425 6.52015 65.0425 7.07015C65.3425 7.59015 65.8025 7.96015 66.4025 8.14015C67.0225 8.34015 67.6325 8.26015 68.1825 7.92015C68.6825 7.60015 68.9825 7.13016 69.0525 6.55016C69.1225 6.01016 68.9725 5.44015 68.6125 4.88015C68.0625 3.99015 67.4125 3.20015 66.6725 2.54015C65.9225 1.88015 65.0325 1.35015 64.0225 0.970154C63.0225 0.600154 61.8325 0.410156 60.5125 0.410156C58.8325 0.410156 57.2925 0.670155 55.9125 1.19016C54.5025 1.72016 53.3725 2.51015 52.5425 3.54015C51.6925 4.60015 51.2625 5.89015 51.2625 7.39015C51.2625 9.42015 52.0725 11.1501 53.6725 12.5201C55.2325 13.8601 57.3725 14.6702 60.0425 14.9202C61.8525 15.1102 63.1625 15.5902 63.9125 16.3602C64.6625 17.1202 65.0225 17.9502 65.0225 18.8902C65.0225 19.6202 64.8125 20.2002 64.3925 20.6802C63.9425 21.1902 63.3425 21.5902 62.6025 21.8602C61.1525 22.4002 59.2725 22.4402 57.7125 21.9202C56.9725 21.6702 56.3325 21.3502 55.8225 20.9602C55.3325 20.5902 54.9825 20.1802 54.7725 19.7502C54.5325 19.2402 54.1725 18.8602 53.6925 18.6002C53.2025 18.3302 52.6925 18.2602 52.1925 18.3702C51.5025 18.5102 51.0025 18.8402 50.6925 19.3702C50.3725 19.9102 50.3625 20.5202 50.6425 21.1102C51.0925 22.1602 51.8025 23.1102 52.7625 23.9102C53.7025 24.7002 54.8225 25.3202 56.0825 25.7502C57.3425 26.1802 58.6725 26.4002 60.0625 26.4002C61.2225 26.4002 62.3725 26.2502 63.4625 25.9402C64.5725 25.6302 65.5725 25.1602 66.4425 24.5302C67.3225 23.8902 68.0425 23.0902 68.5625 22.1502C69.0925 21.2002 69.3625 20.0602 69.3625 18.7902C69.3625 16.5802 68.6025 14.7702 67.1025 13.4002L67.1225 13.4202Z" fill="#80CAFF"/>
<path d="M94.5125 8.89985C93.5625 8.35985 92.4625 8.08984 91.2325 8.08984C89.8425 8.08984 88.5925 8.38985 87.5025 8.99985C86.8525 9.35985 86.2925 9.79985 85.8125 10.3298C85.3625 9.73985 84.8125 9.26985 84.1825 8.90985C83.2325 8.36985 82.1325 8.09985 80.9025 8.09985C79.6725 8.09985 78.4825 8.40985 77.4925 9.00985C77.2425 9.16985 76.9925 9.33984 76.7725 9.51984C76.6925 9.24984 76.5425 8.99985 76.3425 8.79985C75.9925 8.44985 75.5425 8.27985 74.9825 8.27985C74.4225 8.27985 74.0025 8.44985 73.6425 8.79985C73.2825 9.14985 73.1025 9.59985 73.1025 10.1599V23.9598C73.1025 24.4998 73.2825 24.9499 73.6425 25.2999C74.0025 25.6599 74.4525 25.8398 74.9825 25.8398C75.5125 25.8398 75.9925 25.6599 76.3425 25.2999C76.6825 24.9398 76.8625 24.4898 76.8625 23.9598V15.2198C76.8625 14.1298 77.1825 13.2698 77.8325 12.5698C78.4825 11.8798 79.2825 11.5499 80.2825 11.5499C81.2825 11.5499 81.9925 11.8299 82.5825 12.4099C83.1625 12.9799 83.4525 13.8898 83.4525 15.0998V23.9698C83.4525 24.5098 83.6325 24.9598 83.9925 25.3098C84.3525 25.6698 84.8025 25.8498 85.3325 25.8498C85.8625 25.8498 86.3525 25.6698 86.6925 25.3098C87.0325 24.9498 87.2125 24.4998 87.2125 23.9698V15.2299C87.2125 14.1399 87.5225 13.2698 88.1725 12.5798C88.8125 11.8898 89.6025 11.5598 90.6025 11.5598C91.6025 11.5598 92.3125 11.8398 92.9025 12.4198C93.4825 12.9898 93.7725 13.8898 93.7725 15.1098V23.9799C93.7725 24.5199 93.9525 24.9698 94.3125 25.3198C94.6725 25.6798 95.1225 25.8598 95.6525 25.8598C96.1825 25.8598 96.6625 25.6798 97.0125 25.3198C97.3525 24.9598 97.5325 24.5099 97.5325 23.9799V15.1098C97.5325 13.6398 97.2625 12.3698 96.7425 11.3298C96.2125 10.2798 95.4525 9.46985 94.5025 8.92985L94.5125 8.89985Z" fill="white"/>
<path d="M104.382 8.23975C103.852 8.23975 103.402 8.40975 103.042 8.75975C102.682 9.10975 102.503 9.55975 102.503 10.1198V23.9197C102.503 24.4497 102.682 24.9097 103.042 25.2598C103.402 25.6098 103.852 25.7998 104.382 25.7998C104.912 25.7998 105.392 25.6198 105.742 25.2598C106.082 24.8997 106.262 24.4497 106.262 23.9197V10.1198C106.262 9.56975 106.082 9.10975 105.742 8.75975C105.392 8.40975 104.942 8.23975 104.382 8.23975Z" fill="white"/>
<path d="M104.382 1.39014C103.742 1.39014 103.192 1.62014 102.732 2.08014C102.272 2.54014 102.042 3.09014 102.042 3.73014C102.042 4.37014 102.272 4.92013 102.732 5.38013C103.192 5.84013 103.742 6.07014 104.382 6.07014C105.022 6.07014 105.573 5.84013 106.033 5.38013C106.493 4.92013 106.723 4.36014 106.723 3.73014C106.723 3.10014 106.493 2.54014 106.033 2.08014C105.573 1.62014 105.012 1.39014 104.382 1.39014Z" fill="white"/>
<path d="M116.662 22.1H115.893C115.553 22.1 115.263 21.9 115.033 21.5C114.773 21.05 114.643 20.47 114.643 19.76V2.82998C114.643 2.29998 114.462 1.84998 114.122 1.49998C113.772 1.14998 113.332 0.97998 112.792 0.97998C112.252 0.97998 111.812 1.15998 111.462 1.49998C111.112 1.83998 110.943 2.28998 110.943 2.82998V19.76C110.943 20.92 111.153 21.95 111.562 22.84C111.972 23.74 112.562 24.47 113.302 24.99C114.052 25.52 114.923 25.79 115.893 25.79H115.952C116.632 25.79 117.202 25.62 117.652 25.3C118.122 24.95 118.363 24.5 118.363 23.94C118.363 23.38 118.202 22.97 117.902 22.63C117.582 22.28 117.173 22.1 116.673 22.1H116.662Z" fill="white"/>
<path d="M135.253 17.9501C135.583 17.6301 135.742 17.2301 135.742 16.7601C135.742 15.0901 135.422 13.5901 134.792 12.3001C134.162 11.0001 133.233 9.97012 132.033 9.23012C130.833 8.49012 129.383 8.12012 127.723 8.12012C126.063 8.12012 124.532 8.50012 123.232 9.26012C121.932 10.0201 120.892 11.0801 120.162 12.4101C119.432 13.7401 119.052 15.3001 119.052 17.0301C119.052 18.7601 119.443 20.3001 120.223 21.6301C121.003 22.9601 122.092 24.0201 123.462 24.7801C124.832 25.5301 126.422 25.9201 128.182 25.9201C129.162 25.9201 130.202 25.7401 131.272 25.3801C132.342 25.0201 133.252 24.5401 133.982 23.9701C134.522 23.5601 134.612 23.0801 134.592 22.7601C134.562 22.3101 134.342 21.8901 133.932 21.5301C133.602 21.2601 133.233 21.1301 132.783 21.1301C132.363 21.1401 131.962 21.2801 131.602 21.5501C131.212 21.8401 130.692 22.1001 130.052 22.3301C129.412 22.5501 128.782 22.6701 128.182 22.6701C127.062 22.6701 126.052 22.4201 125.202 21.9301C124.342 21.4401 123.663 20.7701 123.173 19.9301C122.903 19.4701 122.703 18.9601 122.583 18.4201H134.012C134.502 18.4201 134.922 18.2601 135.242 17.9501H135.253ZM123.062 14.1101C123.472 13.2701 124.072 12.5901 124.852 12.1101C125.642 11.6301 126.603 11.3801 127.723 11.3801C128.693 11.3801 129.523 11.6001 130.193 12.0401C130.863 12.4801 131.392 13.0901 131.762 13.8601C131.982 14.3101 132.142 14.8101 132.232 15.3401H122.622C122.722 14.9001 122.872 14.4901 123.052 14.1101H123.062Z" fill="white"/>
<path d="M15.4725 0.300141C14.7925 0.0101408 14.2925 0.200138 13.9825 0.860138L8.2125 13.5801L2.1725 0.83014C2.0325 0.52014 1.8225 0.320141 1.5525 0.230141C1.2825 0.140141 0.992499 0.160135 0.682499 0.310135C0.372499 0.450135 0.1625 0.660138 0.0625002 0.930138C-0.0374998 1.20014 -0.0175003 1.49014 0.1225 1.80014L7.0325 16.1201C7.0325 16.1201 7.0325 16.1301 7.0425 16.1401L3.9625 22.9401C3.6525 23.6201 3.8525 24.1201 4.5525 24.4301C4.7625 24.5101 4.9425 24.5501 5.1125 24.5501C5.5025 24.5501 5.8025 24.3101 6.0125 23.8401L16.0625 1.76014C16.3725 1.08014 16.1725 0.590141 15.4725 0.300141Z" fill="white"/>
<path d="M32.6125 4.0798C31.9725 2.8198 31.0625 1.8298 29.9025 1.1198C28.7325 0.409804 27.3625 0.0498047 25.7925 0.0498047C24.2225 0.0498047 22.7925 0.4198 21.5725 1.1698C20.3525 1.9098 19.3925 2.9298 18.7025 4.2198C18.0125 5.5098 17.6625 7.0098 17.6625 8.6998C17.6625 10.3898 18.0325 11.8598 18.7625 13.1598C19.4925 14.4598 20.5125 15.4798 21.8025 16.2098C23.0925 16.9398 24.5825 17.3098 26.2525 17.3098C27.2225 17.3098 28.2325 17.1198 29.2925 16.7398C30.3425 16.3598 31.2125 15.8798 31.8925 15.2998C32.1425 15.0898 32.2625 14.8498 32.2525 14.5598C32.2425 14.2698 32.1025 13.9998 31.8325 13.7498C31.6225 13.5798 31.3825 13.5098 31.0925 13.5198C30.8025 13.5298 30.5425 13.6298 30.3125 13.8098C29.8625 14.1998 29.2525 14.5298 28.5025 14.7898C27.7525 15.0498 27.0025 15.1798 26.2525 15.1798C25.0125 15.1798 23.9125 14.8998 22.9625 14.3398C22.0125 13.7798 21.2625 13.0198 20.7125 12.0498C20.2825 11.2798 20.0225 10.4198 19.9325 9.4798H32.4425C32.7725 9.4798 33.0425 9.3798 33.2525 9.1898C33.4625 8.9898 33.5625 8.7298 33.5625 8.3998C33.5625 6.7898 33.2425 5.3498 32.6025 4.0898L32.6125 4.0798ZM22.6925 3.0298C23.5825 2.4698 24.6125 2.1898 25.7925 2.1898C26.9725 2.1898 27.9425 2.4598 28.7825 2.9998C29.6225 3.5398 30.2625 4.27981 30.7225 5.2298C31.0525 5.91981 31.2525 6.6698 31.3325 7.4898H19.9925C20.1025 6.7098 20.3025 5.9898 20.6325 5.3398C21.1225 4.3598 21.8025 3.5898 22.6925 3.0298Z" fill="white"/>
<path d="M41.9825 17.28C40.7025 17.28 39.4525 17.07 38.2525 16.64C37.0425 16.22 36.0825 15.61 35.3525 14.83C35.1025 14.56 35.0025 14.25 35.0425 13.9C35.0825 13.55 35.2525 13.26 35.5425 13.03C35.8725 12.78 36.2125 12.68 36.5525 12.72C36.8925 12.76 37.1725 12.91 37.4025 13.15C37.8525 13.69 38.4825 14.12 39.2925 14.44C40.1025 14.76 40.9825 14.92 41.9625 14.92C43.3925 14.92 44.4325 14.68 45.1125 14.19C45.7825 13.7 46.1325 13.1 46.1525 12.38C46.1525 11.68 45.8125 11.09 45.1425 10.61C44.4725 10.13 43.3325 9.76 41.7225 9.49C39.6325 9.14 38.1125 8.55 37.1525 7.72C36.1925 6.89 35.7125 5.9 35.7125 4.74C35.7125 3.69 36.0025 2.81 36.5825 2.11C37.1625 1.41 37.9225 0.879999 38.8625 0.529999C39.8025 0.179999 40.8225 0 41.9125 0C43.2925 0 44.4925 0.229997 45.5125 0.699997C46.5225 1.16 47.3425 1.79 47.9625 2.58C48.1925 2.87 48.2925 3.17 48.2525 3.49C48.2225 3.81 48.0525 4.06 47.7425 4.25C47.4725 4.44 47.1625 4.5 46.7925 4.44C46.4325 4.38 46.1225 4.21 45.8825 3.94C45.3625 3.38 44.7725 2.97 44.1125 2.72C43.4525 2.46 42.6925 2.33 41.8525 2.33C40.7825 2.33 39.9125 2.54 39.2525 2.97C38.5925 3.39 38.2625 3.94 38.2625 4.6C38.2625 5.05 38.3825 5.45 38.6225 5.78C38.8625 6.11 39.2825 6.41 39.8925 6.66C40.5025 6.92 41.3725 7.15 42.5125 7.36C44.0625 7.63 45.2825 8.01 46.1825 8.49C47.0825 8.98 47.7225 9.54 48.1025 10.18C48.4825 10.82 48.6725 11.53 48.6725 12.32C48.6725 13.29 48.4025 14.14 47.8525 14.88C47.3025 15.61 46.5325 16.2 45.5425 16.63C44.5525 17.06 43.3725 17.28 42.0125 17.28H41.9825Z" fill="white"/>
</svg>
